<svg width="0" height="0" class="hidden">
  <symbol xmlns="http://www.w3.org/2000/svg" viewBox="0 0 24 24" id="music-svg">
    <g>
      <g>
        <rect width="24" height="24" opacity="0"></rect>
        <path d="M19 15V4a1 1 0 0 0-.38-.78 1 1 0 0 0-.84-.2l-9 2A1 1 0 0 0 8 6v8.34a3.49 3.49 0 1 0 2 3.18 4.36 4.36 0 0 0 0-.52V6.8l7-1.55v7.09a3.49 3.49 0 1 0 2 3.17 4.57 4.57 0 0 0 0-.51z"></path>
      </g>
    </g>
  </symbol>



    <symbol version="1.1" id="microphone-svg" xmlns="http://www.w3.org/2000/svg" xmlns:xlink="http://www.w3.org/1999/xlink" x="0px" y="0px" xml:space="preserve" viewBox="0 0 300 300">
    <g>
      <g>
        <g>
          <path d="M150,222.581c32.018,0,58.065-26.047,58.065-58.065V58.065C208.065,26.047,182.018,0,150,0S91.935,26.047,91.935,58.065
				v106.452C91.935,196.534,117.982,222.581,150,222.581z M101.615,96.775c2.671,0,4.839-2.168,4.839-4.839
				c0-2.671-2.168-4.839-4.839-4.839V62.903c2.671,0,4.839-2.168,4.839-4.839c0-2.584-2.042-4.655-4.597-4.79
				c1.706-17.293,12.583-31.897,27.666-38.985c0.368,0.092,0.726,0.227,1.123,0.227c1.723,0,3.165-0.953,4.021-2.308
				c3.373-1.132,6.89-1.926,10.544-2.289c0.135,2.555,2.206,4.597,4.79,4.597c2.584,0,4.655-2.042,4.79-4.597
				c3.653,0.363,7.171,1.156,10.544,2.289c0.856,1.355,2.298,2.308,4.021,2.308c0.397,0,0.755-0.135,1.123-0.227
				c15.082,7.089,25.955,21.692,27.663,38.985c-2.55,0.135-4.592,2.206-4.592,4.79c0,2.671,2.168,4.839,4.839,4.839v24.194
				c-2.671,0-4.839,2.168-4.839,4.839c0,2.671,2.168,4.839,4.839,4.839v9.677h-96.774V96.775z M101.613,116.129h96.774v9.677
				h-96.774V116.129z M101.613,135.484h96.774v29.032c0,26.681-21.706,48.387-48.387,48.387c-26.681,0-48.387-21.706-48.387-48.387
				V135.484z"></path>
          <path d="M217.744,164.516h-0.002c0,37.355-30.387,67.742-67.742,67.742c-37.355,0-67.742-30.387-67.742-67.742v-62.903h-9.677
				v62.903c0,35.995,24.731,66.242,58.065,74.869v50.937H72.581V300h58.065h38.71h58.065v-9.677h-58.065v-50.937
				c33.334-8.627,58.065-38.874,58.065-74.869v-62.903h-9.677V164.516z M140.322,290.323v-49.06
				c3.179,0.402,6.392,0.673,9.677,0.673c3.285,0,6.498-0.271,9.677-0.673v49.06H140.322z"></path>
          <rect x="53.226" y="101.613" width="9.677" height="33.871"></rect>
          <rect x="237.097" y="101.613" width="9.677" height="33.871"></rect>
          <circle cx="120.968" cy="91.935" r="4.839"></circle>
          <circle cx="140.323" cy="91.935" r="4.839"></circle>
          <circle cx="159.677" cy="91.935" r="4.839"></circle>
          <circle cx="179.032" cy="91.935" r="4.839"></circle>
          <circle cx="111.29" cy="72.581" r="4.839"></circle>
          <circle cx="130.645" cy="72.581" r="4.839"></circle>
          <circle cx="150" cy="72.581" r="4.839"></circle>
          <circle cx="169.355" cy="72.581" r="4.839"></circle>
          <circle cx="188.71" cy="72.581" r="4.839"></circle>
          <circle cx="120.968" cy="58.065" r="4.839"></circle>
          <circle cx="140.323" cy="58.065" r="4.839"></circle>
          <circle cx="159.677" cy="58.065" r="4.839"></circle>
          <circle cx="179.032" cy="58.065" r="4.839"></circle>
          <circle cx="111.29" cy="43.548" r="4.839"></circle>
          <circle cx="130.645" cy="43.548" r="4.839"></circle>
          <circle cx="150" cy="43.548" r="4.839"></circle>
          <circle cx="169.355" cy="43.548" r="4.839"></circle>
          <circle cx="188.71" cy="43.548" r="4.839"></circle>
          <circle cx="120.968" cy="29.032" r="4.839"></circle>
          <circle cx="140.323" cy="29.032" r="4.839"></circle>
          <circle cx="159.677" cy="29.032" r="4.839"></circle>
          <circle cx="179.032" cy="29.032" r="4.839"></circle>
        </g>
      </g>
    </g>
    <g></g>
    <g></g>
    <g></g>
    <g></g>
    <g></g>
    <g></g>
    <g></g>
    <g></g>
    <g></g>
    <g></g>
    <g></g>
    <g></g>
    <g></g>
    <g></g>
    <g></g>
  </symbol>




<symbol version="1.1" id="explore-svg" xmlns="http://www.w3.org/2000/svg" xmlns:xlink="http://www.w3.org/1999/xlink" x="0px" y="0px" xml:space="preserve" viewBox="0 0 606.877 606.877">
    <g>
      <g>
        <g>
          <path d="M58.64,280.154h162.654c32.058,0,58.14-26.082,58.14-58.14V59.36c0-32.059-26.082-58.14-58.14-58.14H58.64
				C26.582,1.22,0.5,27.301,0.5,59.36v162.654C0.5,254.072,26.582,280.154,58.64,280.154z M43.34,59.36c0-8.45,6.85-15.3,15.3-15.3
				h162.654c8.45,0,15.3,6.85,15.3,15.3v162.654c0,8.45-6.85,15.3-15.3,15.3H58.64c-8.45,0-15.3-6.85-15.3-15.3V59.36z"></path>
          <path d="M221.294,280.654H58.64c-32.334,0-58.64-26.306-58.64-58.64V59.36C0,27.025,26.306,0.72,58.64,0.72h162.654
				c32.334,0,58.64,26.306,58.64,58.64v162.654C279.934,254.348,253.628,280.654,221.294,280.654z M58.64,1.72
				C26.857,1.72,1,27.577,1,59.36v162.654c0,31.783,25.857,57.64,57.64,57.64h162.654c31.783,0,57.64-25.857,57.64-57.64V59.36
				c0-31.783-25.857-57.64-57.64-57.64H58.64z M221.294,237.813H58.64c-8.712,0-15.8-7.088-15.8-15.8V59.36
				c0-8.712,7.088-15.8,15.8-15.8h162.654c8.712,0,15.8,7.088,15.8,15.8v162.654C237.094,230.726,230.006,237.813,221.294,237.813z
				 M58.64,44.56c-8.161,0-14.8,6.639-14.8,14.8v162.654c0,8.161,6.639,14.8,14.8,14.8h162.654c8.161,0,14.8-6.639,14.8-14.8V59.36
				c0-8.161-6.639-14.8-14.8-14.8H58.64z"></path>
        </g>
        <g>
          <path d="M548.238,1.22H385.584c-32.059,0-58.141,26.082-58.141,58.14v162.654c0,32.058,26.082,58.14,58.141,58.14h162.654
				c32.059,0,58.139-26.082,58.139-58.14V59.36C606.377,27.301,580.297,1.22,548.238,1.22z M563.537,222.014
				c0,8.45-6.85,15.3-15.299,15.3H385.584c-8.449,0-15.301-6.85-15.301-15.3V59.36c0-8.45,6.852-15.3,15.301-15.3h162.654
				c8.449,0,15.299,6.85,15.299,15.3V222.014z"></path>
          <path d="M548.238,280.654H385.584c-32.335,0-58.641-26.306-58.641-58.64V59.36c0-32.334,26.306-58.64,58.641-58.64h162.654
				c32.333,0,58.639,26.306,58.639,58.64v162.654C606.877,254.348,580.571,280.654,548.238,280.654z M385.584,1.72
				c-31.783,0-57.641,25.857-57.641,57.64v162.654c0,31.783,25.857,57.64,57.641,57.64h162.654c31.782,0,57.639-25.857,57.639-57.64
				V59.36c0-31.783-25.856-57.64-57.639-57.64H385.584z M548.238,237.813H385.584c-8.713,0-15.801-7.088-15.801-15.8V59.36
				c0-8.712,7.088-15.8,15.801-15.8h162.654c8.712,0,15.799,7.088,15.799,15.8v162.654
				C564.037,230.726,556.95,237.813,548.238,237.813z M385.584,44.56c-8.161,0-14.801,6.639-14.801,14.8v162.654
				c0,8.161,6.64,14.8,14.801,14.8h162.654c8.16,0,14.799-6.639,14.799-14.8V59.36c0-8.161-6.639-14.8-14.799-14.8H385.584z"></path>
        </g>
        <g>
          <path d="M58.64,605.657h162.654c32.058,0,58.14-26.08,58.14-58.139V384.864c0-32.059-26.082-58.141-58.14-58.141H58.64
				c-32.058,0-58.14,26.082-58.14,58.141v162.654C0.5,579.577,26.582,605.657,58.64,605.657z M43.34,384.864
				c0-8.449,6.85-15.301,15.3-15.301h162.654c8.45,0,15.3,6.852,15.3,15.301v162.654c0,8.449-6.85,15.299-15.3,15.299H58.64
				c-8.45,0-15.3-6.85-15.3-15.299V384.864z"></path>
          <path d="M221.294,606.157H58.64C26.306,606.157,0,579.852,0,547.519V384.864c0-32.335,26.306-58.641,58.64-58.641h162.654
				c32.334,0,58.64,26.306,58.64,58.641v162.654C279.934,579.852,253.628,606.157,221.294,606.157z M58.64,327.224
				C26.857,327.224,1,353.081,1,384.864v162.654c0,31.782,25.857,57.639,57.64,57.639h162.654c31.783,0,57.64-25.856,57.64-57.639
				V384.864c0-31.783-25.857-57.641-57.64-57.641H58.64z M221.294,563.317H58.64c-8.712,0-15.8-7.087-15.8-15.799V384.864
				c0-8.713,7.088-15.801,15.8-15.801h162.654c8.712,0,15.8,7.088,15.8,15.801v162.654
				C237.094,556.23,230.006,563.317,221.294,563.317z M58.64,370.063c-8.161,0-14.8,6.64-14.8,14.801v162.654
				c0,8.16,6.639,14.799,14.8,14.799h162.654c8.161,0,14.8-6.639,14.8-14.799V384.864c0-8.161-6.639-14.801-14.8-14.801H58.64z"></path>
        </g>
        <g>
          <path d="M548.238,326.724H385.584c-32.059,0-58.141,26.082-58.141,58.141v162.654c0,32.059,26.082,58.139,58.141,58.139h162.654
				c32.059,0,58.139-26.08,58.139-58.139V384.864C606.377,352.806,580.297,326.724,548.238,326.724z M563.537,547.519
				c0,8.449-6.85,15.299-15.299,15.299H385.584c-8.449,0-15.301-6.85-15.301-15.299V384.864c0-8.449,6.852-15.301,15.301-15.301
				h162.654c8.449,0,15.299,6.852,15.299,15.301V547.519z"></path>
          <path d="M548.238,606.157H385.584c-32.335,0-58.641-26.306-58.641-58.639V384.864c0-32.335,26.306-58.641,58.641-58.641h162.654
				c32.333,0,58.639,26.306,58.639,58.641v162.654C606.877,579.852,580.571,606.157,548.238,606.157z M385.584,327.224
				c-31.783,0-57.641,25.857-57.641,57.641v162.654c0,31.782,25.857,57.639,57.641,57.639h162.654
				c31.782,0,57.639-25.856,57.639-57.639V384.864c0-31.783-25.856-57.641-57.639-57.641H385.584z M548.238,563.317H385.584
				c-8.713,0-15.801-7.087-15.801-15.799V384.864c0-8.713,7.088-15.801,15.801-15.801h162.654c8.712,0,15.799,7.088,15.799,15.801
				v162.654C564.037,556.23,556.95,563.317,548.238,563.317z M385.584,370.063c-8.161,0-14.801,6.64-14.801,14.801v162.654
				c0,8.16,6.64,14.799,14.801,14.799h162.654c8.16,0,14.799-6.639,14.799-14.799V384.864c0-8.161-6.639-14.801-14.799-14.801
				H385.584z"></path>
        </g>
      </g>
    </g>
    <g></g>
    <g></g>
    <g></g>
    <g></g>
    <g></g>
    <g></g>
    <g></g>
    <g></g>
    <g></g>
    <g></g>
    <g></g>
    <g></g>
    <g></g>
    <g></g>
    <g></g>
</symbol>




<symbol version="1.1" id="favourite-svg" xmlns="http://www.w3.org/2000/svg" xmlns:xlink="http://www.w3.org/1999/xlink" x="0px" y="0px" xml:space="preserve" viewBox="0 0 471.701 471.701">
    <g>
      <path d="M433.601,67.001c-24.7-24.7-57.4-38.2-92.3-38.2s-67.7,13.6-92.4,38.3l-12.9,12.9l-13.1-13.1
		c-24.7-24.7-57.6-38.4-92.5-38.4c-34.8,0-67.6,13.6-92.2,38.2c-24.7,24.7-38.3,57.5-38.2,92.4c0,34.9,13.7,67.6,38.4,92.3
		l187.8,187.8c2.6,2.6,6.1,4,9.5,4c3.4,0,6.9-1.3,9.5-3.9l188.2-187.5c24.7-24.7,38.3-57.5,38.3-92.4
		C471.801,124.501,458.301,91.701,433.601,67.001z M414.401,232.701l-178.7,178l-178.3-178.3c-19.6-19.6-30.4-45.6-30.4-73.3
		s10.7-53.7,30.3-73.2c19.5-19.5,45.5-30.3,73.1-30.3c27.7,0,53.8,10.8,73.4,30.4l22.6,22.6c5.3,5.3,13.8,5.3,19.1,0l22.4-22.4
		c19.6-19.6,45.7-30.4,73.3-30.4c27.6,0,53.6,10.8,73.2,30.3c19.6,19.6,30.3,45.6,30.3,73.3
		C444.801,187.101,434.001,213.101,414.401,232.701z"></path>
    </g>
    <g></g>
    <g></g>
    <g></g>
    <g></g>
    <g></g>
    <g></g>
    <g></g>
    <g></g>
    <g></g>
    <g></g>
    <g></g>
    <g></g>
    <g></g>
    <g></g>
    <g></g>
</symbol>


<symbol version="1.1" id="search-svg" xmlns="http://www.w3.org/2000/svg" xmlns:xlink="http://www.w3.org/1999/xlink" x="0px" y="0px" xml:space="preserve" viewBox="0 0 451 451">
    <g>
      <path d="M447.05,428l-109.6-109.6c29.4-33.8,47.2-77.9,47.2-126.1C384.65,86.2,298.35,0,192.35,0C86.25,0,0.05,86.3,0.05,192.3
		s86.3,192.3,192.3,192.3c48.2,0,92.3-17.8,126.1-47.2L428.05,447c2.6,2.6,6.1,4,9.5,4s6.9-1.3,9.5-4
		C452.25,441.8,452.25,433.2,447.05,428z M26.95,192.3c0-91.2,74.2-165.3,165.3-165.3c91.2,0,165.3,74.2,165.3,165.3
		s-74.1,165.4-165.3,165.4C101.15,357.7,26.95,283.5,26.95,192.3z"></path>
    </g>
    <g></g>
    <g></g>
    <g></g>
    <g></g>
    <g></g>
    <g></g>
    <g></g>
    <g></g>
    <g></g>
    <g></g>
    <g></g>
    <g></g>
    <g></g>
    <g></g>
    <g></g>
</symbol>







<symbol version="1.1" id="notification-svg" xmlns="http://www.w3.org/2000/svg" xmlns:xlink="http://www.w3.org/1999/xlink" x="0px" y="0px" xml:space="preserve" viewBox="0 0 512 512">
    <path d="M256,0c-18.645,0-33.758,15.114-33.758,33.758v123.458h67.516V33.758C289.758,15.114,274.645,0,256,0
	z"></path>
    <path d="M423.34,202.831l28.875,219.429h-45.011l-22.247-219.429
	c-8.316-82.078-62.081-145.566-127.415-146.556C342.534,57.029,412.526,120.607,423.34,202.831z"></path>
    <path d="M256,25.319c-4.661,0-8.44,3.778-8.44,8.44v33.758h16.879V33.758
	C264.44,29.096,260.662,25.319,256,25.319z"></path>
    <path d="M384.957,202.831l22.247,219.429H59.786L88.66,202.831C99.542,120.112,170.31,56.264,256,56.264
	c0.518,0,1.035,0,1.542,0.011C322.875,57.265,376.641,120.753,384.957,202.831z"></path>
    <path d="M447.736,388.22h-33.758l33.758,67.517h33.758v-33.758
	C481.494,403.411,466.303,388.22,447.736,388.22z"></path>
    <path d="M285.955,421.978l-28.683,90.011c41.118-0.45,76.946-22.967,96.2-56.252L285.955,421.978z"></path>
    <path d="M158.529,455.736l80.592-45.011l80.592,45.011c-12.513,33.106-35.75,55.555-62.441,56.252
	C256.855,512,256.428,512,256,512C214.354,512,177.985,489.371,158.529,455.736z"></path>
    <path d="M447.736,421.978v33.758H30.506v-33.758c0-18.567,15.191-33.758,33.758-33.758h349.713
	C432.544,388.22,447.736,403.411,447.736,421.978z"></path>
    <g>
      <circle cx="310.812" cy="180.325" r="8.44"></circle>
      <circle cx="355.823" cy="202.831" r="8.44"></circle>
      <circle cx="156.177" cy="315.358" r="8.44"></circle>
    </g>
    <g></g>
    <g></g>
    <g></g>
    <g></g>
    <g></g>
    <g></g>
    <g></g>
    <g></g>
    <g></g>
    <g></g>
    <g></g>
    <g></g>
    <g></g>
    <g></g>
    <g></g>
</symbol>


</svg>